<svg width="666" height="674" viewBox="0 0 666 674" fill="none" xmlns="http://www.w3.org/2000/svg">
<path d="M295.557 3.19401C250.996 10.5418 204.776 28.5559 166.141 53.9177C141.727 69.7985 104.04 106.538 86.0259 131.9C47.1535 186.179 28.6654 243.065 28.6654 308.247C28.6654 342.616 29.3765 352.334 35.0651 382.2C37.1984 392.392 38.1465 402.347 37.4354 404.243C35.3022 409.695 27.9543 404.717 19.4214 392.155C15.3919 386.229 11.1254 381.489 9.94031 381.489C8.75517 381.489 5.91085 384.807 3.77761 389.074C-6.41454 408.51 4.48869 454.256 30.7987 501.424C70.3821 573.243 145.283 634.159 225.635 659.758C265.692 672.557 278.492 674.217 333.482 673.98C381.124 673.743 384.443 673.506 410.989 666.632C563.161 626.337 664.608 486.254 665.082 316.306C665.319 225.525 637.35 155.839 575.249 93.2642C530.925 48.7031 480.438 20.2599 422.367 6.74941C394.161 0.349689 325.186 -1.78355 295.557 3.19401ZM423.789 76.6723C456.262 85.2053 487.075 110.33 506.511 143.751L517.889 163.424H539.695C575.012 163.424 574.775 165.083 530.451 210.118L506.748 234.295L514.333 258.709C526.659 299.24 530.214 344.512 523.103 377.459C514.333 418.939 485.89 447.619 441.329 460.419C414.545 468.003 388.472 470.137 323.527 470.374C249.337 470.374 243.886 469.189 269.01 457.811C292.239 447.145 312.386 432.686 334.667 409.932C361.451 382.911 370.221 366.319 370.221 342.142C370.221 325.787 369.747 324.602 362.162 316.543C348.888 302.322 342.489 305.64 339.407 327.684C336.326 348.779 328.267 365.608 313.097 382.911C289.395 409.458 261.426 427.709 232.508 435.057C209.991 440.745 134.853 438.612 108.306 431.264C97.8772 428.42 87.9221 425.339 86.2629 424.39C82.7075 422.257 96.6921 402.821 140.068 349.49C168.985 313.936 229.427 251.361 259.055 225.999L279.677 208.459L282.521 187.838C288.21 147.543 297.691 126.922 321.393 104.641C349.126 78.5685 389.42 67.4283 423.789 76.6723ZM613.173 414.672C615.307 418.228 603.929 441.456 592.078 458.285C537.325 534.371 406.96 574.902 263.559 560.444C233.931 557.362 182.97 544.089 153.104 531.527C128.928 521.334 97.8772 502.372 78.6781 485.543C63.2713 472.27 51.183 457.811 53.5532 455.678C54.2643 454.73 70.6191 458.996 90.0553 464.922C210.702 502.609 240.804 508.061 321.63 508.061C383.257 507.824 410.989 504.743 461.95 491.706C520.97 476.536 572.642 449.752 601.085 419.65C608.67 411.828 610.803 410.88 613.173 414.672ZM524.288 561.629C524.288 565.895 493.001 587.228 467.402 600.501C419.997 625.152 378.754 635.818 329.926 635.818C279.44 635.581 233.694 624.204 185.103 599.316C152.156 582.487 127.506 563.999 137.935 563.999C139.12 563.999 147.89 567.081 157.371 570.873C225.635 597.894 320.445 606.427 405.775 593.391C426.159 590.309 471.668 577.51 492.764 568.977C516.94 559.259 524.288 557.6 524.288 561.629Z" fill="#C0E5FF"/>
<path d="M400.56 144.699C393.923 151.099 393.449 152.758 394.871 162.95C397.479 182.149 412.648 192.578 428.766 185.942C438.247 181.912 441.329 175.987 441.329 162.239C441.329 139.247 416.678 128.581 400.56 144.699Z" fill="#C0E5FF"/>
</svg>
