<svg width="1875" height="674" viewBox="0 0 1875 674" fill="none" xmlns="http://www.w3.org/2000/svg">
<path d="M295.694 3.19401C251.133 10.5418 204.912 28.5559 166.277 53.9177C141.863 69.7985 104.176 106.538 86.1621 131.9C47.2897 186.179 28.8016 243.065 28.8016 308.247C28.8016 342.616 29.5127 352.334 35.2014 382.2C37.3346 392.392 38.2827 402.347 37.5716 404.243C35.4384 409.695 28.0906 404.717 19.5576 392.155C15.5282 386.229 11.2617 381.489 10.0765 381.489C8.8914 381.489 6.04708 384.807 3.91384 389.074C-6.2783 408.51 4.62492 454.256 30.9349 501.424C70.5183 573.243 145.419 634.159 225.771 659.758C265.828 672.557 278.628 674.217 333.618 673.98C381.26 673.743 384.579 673.506 411.126 666.632C563.297 626.337 664.744 486.254 665.218 316.306C665.455 225.525 637.486 155.839 575.385 93.2642C531.061 48.7031 480.575 20.2599 422.503 6.74941C394.297 0.349689 325.322 -1.78355 295.694 3.19401ZM423.925 76.6723C456.398 85.2053 487.211 110.33 506.647 143.751L518.025 163.424H539.831C575.148 163.424 574.911 165.083 530.587 210.118L506.885 234.295L514.469 258.709C526.795 299.24 530.35 344.512 523.239 377.459C514.469 418.939 486.026 447.619 441.465 460.419C414.681 468.003 388.608 470.137 323.663 470.374C249.474 470.374 244.022 469.189 269.147 457.811C292.375 447.145 312.523 432.686 334.803 409.932C361.587 382.911 370.357 366.319 370.357 342.142C370.357 325.787 369.883 324.602 362.298 316.543C349.025 302.322 342.625 305.64 339.544 327.684C336.462 348.779 328.403 365.608 313.234 382.911C289.531 409.458 261.562 427.709 232.645 435.057C210.127 440.745 134.99 438.612 108.443 431.264C98.0134 428.42 88.0583 425.339 86.3991 424.39C82.8437 422.257 96.8283 402.821 140.204 349.49C169.121 313.936 229.563 251.361 259.192 225.999L279.813 208.459L282.657 187.838C288.346 147.543 297.827 126.922 321.53 104.641C349.262 78.5685 389.556 67.4283 423.925 76.6723ZM613.31 414.672C615.443 418.228 604.065 441.456 592.214 458.285C537.461 534.371 407.096 574.902 263.695 560.444C234.067 557.362 183.106 544.089 153.241 531.527C129.064 521.334 98.0134 502.372 78.8143 485.543C63.4075 472.27 51.3192 457.811 53.6895 455.678C54.4005 454.73 70.7554 458.996 90.1916 464.922C210.838 502.609 240.941 508.061 321.767 508.061C383.394 507.824 411.126 504.743 462.086 491.706C521.106 476.536 572.778 449.752 601.221 419.65C608.806 411.828 610.939 410.88 613.31 414.672ZM524.424 561.629C524.424 565.895 493.137 587.228 467.538 600.501C420.133 625.152 378.89 635.818 330.063 635.818C279.576 635.581 233.83 624.204 185.239 599.316C152.293 582.487 127.642 563.999 138.071 563.999C139.256 563.999 148.026 567.081 157.507 570.873C225.771 597.894 320.582 606.427 405.911 593.391C426.295 590.309 471.805 577.51 492.9 568.977C517.077 559.259 524.424 557.6 524.424 561.629Z" fill="#303969"/>
<path d="M400.696 144.699C394.06 151.099 393.586 152.758 395.008 162.95C397.615 182.149 412.785 192.578 428.902 185.942C438.384 181.912 441.465 175.987 441.465 162.239C441.465 139.247 416.814 128.581 400.696 144.699Z" fill="#303969"/>
<path d="M778.043 132.61C773.302 137.351 773.302 140.432 773.302 324.128C773.302 502.372 773.539 511.379 777.569 514.935C783.968 520.623 839.907 520.86 845.358 515.172C848.677 511.853 849.151 497.869 849.151 396.658C849.151 286.678 849.862 272.456 856.025 272.456C857.921 272.456 876.172 299.951 967.664 440.745C991.13 476.536 1013.41 508.772 1017.44 512.327C1024.55 518.964 1025.02 518.964 1057.73 518.964C1089.02 518.964 1090.92 518.727 1094.24 513.749C1097.55 509.009 1098.03 486.965 1098.03 322.943C1098.03 140.432 1098.03 137.351 1093.29 132.61C1089.02 128.344 1085.47 127.87 1060.1 127.87C1034.74 127.87 1031.19 128.344 1026.92 132.61C1022.42 137.114 1022.18 140.432 1022.18 258.472C1022.18 364.186 1021.71 379.355 1018.62 378.644C1015.31 377.933 974.775 317.254 897.267 196.608C878.305 167.216 859.343 139.721 854.839 135.455L846.781 127.87H814.782C785.865 127.87 782.309 128.344 778.043 132.61Z" fill="#303969"/>
<path d="M1726.86 155.128C1721.65 158.684 1721.41 160.343 1721.41 194.475V229.792H1706.95C1683.96 229.792 1683.48 230.503 1683.48 258.946C1683.48 274.827 1684.43 284.782 1686.57 287.389C1688.46 290.233 1693.91 291.418 1704.82 291.893L1720.22 292.604L1721.41 377.933C1722.59 453.071 1723.31 464.685 1727.1 474.64C1733.5 491.232 1751.51 509.72 1769.29 518.016C1783.27 524.416 1786.12 524.89 1813.85 524.89C1836.13 524.89 1846.56 523.705 1855.57 520.623C1872.87 514.698 1876.42 509.957 1874.29 495.973C1873.34 489.81 1872.16 481.277 1871.68 477.01C1871.21 472.981 1869.55 466.581 1868.37 463.263C1866.23 457.811 1865.05 457.337 1858.41 458.522C1854.14 459.233 1843 460.419 1834 461.367C1818.35 462.552 1816.69 462.315 1810.06 456.626C1798.21 446.434 1797.02 437.901 1797.73 361.341L1798.44 292.604L1831.63 291.418C1863.86 290.233 1864.81 289.996 1867.65 284.308C1871.21 276.96 1869.08 242.591 1864.57 235.006C1861.25 230.029 1859.83 229.792 1829.26 229.792H1797.26V196.845C1797.26 152.284 1797.73 152.995 1760.04 152.047C1737.05 151.336 1731.13 152.047 1726.86 155.128Z" fill="#303969"/>
<path d="M1253.28 225.051C1210.14 230.74 1172.22 257.05 1153.26 294.263C1140.46 319.625 1137.14 335.506 1137.14 375.563C1137.14 408.51 1137.61 412.539 1143.78 430.079C1165.11 490.758 1218.44 526.075 1287.89 526.075C1312.78 526.075 1333.87 520.86 1356.63 509.009C1375.35 499.528 1401.42 476.299 1401.42 469.189C1401.42 462.315 1369.43 436.005 1361.13 436.005C1358.76 436.005 1352.83 439.323 1347.86 443.353C1342.64 447.619 1331.74 454.256 1323.2 458.048C1309.93 464.448 1305.19 465.396 1287.65 465.633C1270.35 465.633 1265.61 464.685 1253.99 458.997C1236.93 450.701 1222.47 434.583 1217.49 418.228C1210.62 396.658 1203.98 398.318 1308.04 398.081C1385.54 398.081 1400.48 397.607 1403.32 394.762C1408.77 389.311 1409.96 349.016 1405.22 327.447C1396.21 285.019 1374.64 256.813 1336.24 238.088C1309.46 224.814 1285.04 221.022 1253.28 225.051ZM1295.71 286.678C1311.35 292.604 1321.31 303.033 1326.76 319.862C1331.5 334.083 1329.37 342.616 1320.36 344.75C1317.28 345.461 1292.63 345.698 1265.13 345.461L1215.36 344.75L1214.65 339.298C1213.22 330.054 1226.73 304.929 1237.64 296.396C1255.89 281.938 1274.61 278.856 1295.71 286.678Z" fill="#303969"/>
<path d="M1526.1 225.051C1486.75 232.162 1459.26 249.939 1445.27 277.197C1432 302.559 1436.74 342.853 1455.23 366.082C1469.45 383.622 1484.86 390.733 1546.01 407.562C1578.72 416.569 1589.62 422.257 1594.6 432.923C1598.63 441.456 1597.21 446.434 1587.96 456.863C1580.85 464.448 1560.71 469.9 1546.72 467.766C1524.91 464.685 1511.17 457.811 1492.68 440.508C1482.96 431.501 1473.72 424.153 1472.53 424.153C1467.79 424.153 1452.38 433.16 1445.51 439.797C1441.72 443.59 1437.21 450.226 1435.32 454.493C1432.24 461.841 1432.47 463.5 1436.98 472.744C1443.14 485.306 1460.92 502.372 1476.32 510.194C1496.23 520.386 1512.59 523.942 1542.45 525.127C1566.63 525.838 1573.5 525.364 1587.49 521.097C1635.61 506.639 1660.73 478.67 1663.81 435.768C1665.71 413.013 1660.26 396.895 1645.56 380.778C1631.1 364.897 1614.51 357.312 1566.16 344.749C1531.31 335.742 1514.72 329.58 1511.64 324.602C1507.61 318.202 1506.19 304.929 1508.56 299.477C1513.54 288.574 1526.34 283.123 1546.01 283.123C1570.42 283.36 1578.96 286.915 1599.34 305.877C1609.06 314.884 1618.3 322.232 1619.96 322.232C1626.12 322.232 1648.17 310.381 1653.86 304.218C1657.18 300.663 1659.78 295.211 1659.78 292.13C1659.78 275.538 1634.89 246.146 1613.09 236.665C1589.15 226.473 1548.62 221.022 1526.1 225.051Z" fill="#303969"/>
</svg>
