<svg width="666" height="674" viewBox="0 0 666 674" fill="none" xmlns="http://www.w3.org/2000/svg">
<path d="M295.849 2.75016C251.287 10.098 205.067 28.112 166.432 53.4739C142.018 69.3547 104.331 106.094 86.3169 131.456C47.4445 185.735 28.9564 242.621 28.9564 307.804C28.9564 342.172 29.6675 351.891 35.3562 381.756C37.4894 391.948 38.4375 401.903 37.7264 403.799C35.5932 409.251 28.2454 404.273 19.7124 391.711C15.6829 385.785 11.4165 381.045 10.2313 381.045C9.04619 381.045 6.20187 384.363 4.06863 388.63C-6.12352 408.066 4.77971 453.812 31.0897 500.98C70.6731 572.799 145.574 633.715 225.926 659.314C265.983 672.114 278.783 673.773 333.773 673.536C381.415 673.299 384.734 673.062 411.281 666.188C563.452 625.893 664.899 485.811 665.373 315.862C665.61 225.081 637.641 155.395 575.54 92.8203C531.216 48.2593 480.729 19.8161 422.658 6.30556C394.452 -0.0941589 325.477 -2.2274 295.849 2.75016ZM424.08 76.2284C456.553 84.7614 487.366 109.886 506.802 143.307L518.18 162.98H539.986C575.303 162.98 575.066 164.639 530.742 209.674L507.039 233.851L514.624 258.265C526.95 298.797 530.505 344.069 523.394 377.015C514.624 418.495 486.181 447.175 441.62 459.975C414.836 467.56 388.763 469.693 323.818 469.93C249.628 469.93 244.177 468.745 269.302 457.367C292.53 446.701 312.677 432.243 334.958 409.488C361.742 382.467 370.512 365.875 370.512 341.698C370.512 325.344 370.038 324.158 362.453 316.099C349.18 301.878 342.78 305.196 339.698 327.24C336.617 348.335 328.558 365.164 313.388 382.467C289.686 409.014 261.717 427.265 232.799 434.613C210.282 440.301 135.144 438.168 108.597 430.82C98.1682 427.976 88.2131 424.895 86.5539 423.947C82.9985 421.813 96.9831 402.377 140.359 349.046C169.276 313.492 229.718 250.917 259.346 225.555L279.968 208.015L282.812 187.394C288.501 147.099 297.982 126.478 321.684 104.198C349.417 78.1247 389.711 66.9844 424.08 76.2284ZM613.464 414.229C615.598 417.784 604.22 441.013 592.369 457.841C537.616 533.927 407.251 574.459 263.85 560C234.222 556.919 183.261 543.645 153.395 531.083C129.219 520.891 98.1682 501.928 78.9691 485.1C63.5623 471.826 51.474 457.367 53.8442 455.234C54.5553 454.286 70.9102 458.553 90.3463 464.478C210.993 502.165 241.095 507.617 321.921 507.617C383.548 507.38 411.281 504.299 462.241 491.262C521.261 476.093 572.933 449.309 601.376 419.206C608.961 411.384 611.094 410.436 613.464 414.229ZM524.579 561.185C524.579 565.452 493.292 586.784 467.693 600.058C420.288 624.708 379.045 635.374 330.217 635.374C279.731 635.137 233.985 623.76 185.394 598.872C152.447 582.043 127.797 563.555 138.226 563.555C139.411 563.555 148.181 566.637 157.662 570.429C225.926 597.45 320.736 605.983 406.066 592.947C426.45 589.865 471.959 577.066 493.055 568.533C517.231 558.815 524.579 557.156 524.579 561.185Z" fill="#303969"/>
<path d="M400.851 144.255C394.214 150.655 393.74 152.314 395.162 162.506C397.77 181.705 412.939 192.134 429.057 185.498C438.538 181.468 441.62 175.543 441.62 161.795C441.62 138.803 416.969 128.137 400.851 144.255Z" fill="#303969"/>
</svg>
